{
  "accessors": [
    {
      "name": "1303_Window_Fan.000-Mesh_0_positions",
      "componentType": 5126,
      "count": 1396,
      "min": [
        -0.08576299995183945,
        -0.1760520040988922,
        -0.1862819939851761
      ],
      "max": [
        0.006144999992102385,
        0.18980799615383148,
        0.1898989975452423
      ],
      "type": "VEC3",
      "bufferView": 0,
      "byteOffset": 0
    },
    {
      "name": "1303_Window_Fan.000-Mesh_0_normals",
      "componentType": 5126,
      "count": 1396,
      "min": [
        -1,
        -1,
        -1
      ],
      "max": [
        1,
        1,
        1
      ],
      "type": "VEC3",
      "bufferView": 1,
      "byteOffset": 0
    },
    {
      "name": "1303_Window_Fan.000-Mesh_0_texcoords",
      "componentType": 5126,
      "count": 1396,
      "min": [
        0,
        0
      ],
      "max": [
        1,
        1
      ],
      "type": "VEC2",
      "bufferView": 2,
      "byteOffset": 0
    },
    {
      "name": "1303_Window_Fan.000-Mesh_0_indices",
      "componentType": 5123,
      "count": 2172,
      "min": [
        0
      ],
      "max": [
        1395
      ],
      "type": "SCALAR",
      "bufferView": 3,
      "byteOffset": 0
    }
  ],
  "asset": {
    "generator": "obj2gltf",
    "version": "2.0"
  },
  "buffers": [
    {
      "name": "fan-1",
      "byteLength": 49016,
      "uri": "data:application/octet-stream;base64,"
    }
  ],
  "bufferViews": [
    {
      "name": "bufferView_0",
      "buffer": 0,
      "byteLength": 16752,
      "byteOffset": 0,
      "byteStride": 12,
      "target": 34962
    },
    {
      "name": "bufferView_1",
      "buffer": 0,
      "byteLength": 16752,
      "byteOffset": 16752,
      "byteStride": 12,
      "target": 34962
    },
    {
      "name": "bufferView_2",
      "buffer": 0,
      "byteLength": 11168,
      "byteOffset": 33504,
      "byteStride": 8,
      "target": 34962
    },
    {
      "name": "bufferView_3",
      "buffer": 0,
      "byteLength": 4344,
      "byteOffset": 44672,
      "target": 34963
    }
  ],
  "materials": [
    {
      "name": "Mat.001",
      "pbrMetallicRoughness": {
        "baseColorFactor": [
          0.8,
          0.8,
          0.8,
          1
        ],
        "metallicFactor": 0,
        "roughnessFactor": 1
      },
      "emissiveFactor": [
        0,
        0,
        0
      ],
      "alphaMode": "OPAQUE",
      "doubleSided": false
    }
  ],
  "meshes": [
    {
      "name": "1303_Window_Fan.000-Mesh",
      "primitives": [
        {
          "attributes": {
            "POSITION": 0,
            "NORMAL": 1,
            "TEXCOORD_0": 2
          },
          "indices": 3,
          "material": 0,
          "mode": 4
        }
      ]
    }
  ],
  "nodes": [
    {
      "name": "1303_Window_Fan.000",
      "mesh": 0
    }
  ],
  "scene": 0,
  "scenes": [
    {
      "nodes": [
        0
      ]
    }
  ]
}
